<?xml version="1.0" encoding="utf-8"?>
<!-- Generator: Adobe Illustrator 27.5.0, SVG Export Plug-In . SVG Version: 6.00 Build 0)  -->
<svg version="1.1" xmlns="http://www.w3.org/2000/svg" xmlns:xlink="http://www.w3.org/1999/xlink" x="0px" y="0px"
	 viewBox="0 0 500 500" style="enable-background:new 0 0 500 500;" xml:space="preserve">
<g id="Background">
	<rect style="fill:#E6E7E8;" width="500" height="500"/>
	<g>
		<rect x="67.278" y="62.492" style="fill:#FFFFFF;" width="78.963" height="78.964"/>
		<rect x="154.527" y="62.492" style="fill:#FFFFFF;" width="78.964" height="78.964"/>
		<rect x="67.278" y="150.372" style="fill:#FFFFFF;" width="78.963" height="78.964"/>
		<rect x="154.527" y="150.372" style="fill:#FFFFFF;" width="78.964" height="78.964"/>
	</g>
</g>
<g id="Objects">
	<g>
		<g>
			<rect x="22.333" y="368.012" style="fill:#E6E7E8;" width="455.333" height="10.2"/>
			<g>
				<ellipse style="fill:#E6E7E8;" cx="401.954" cy="391.671" rx="21.34" ry="3.247"/>
				<g>
					<g>
						<path style="fill:#76C198;" d="M397.2,290.495c0.583-6.426,3.011-12.539,6.826-17.727c4.546-6.181,9.155-9.742,16.745-10.919
							c7.458-1.157,16.865,1.37,19.763,9.142c1.051,2.818,0.96,6.18-0.78,8.633c-1.739,2.453-5.299,3.639-7.952,2.224
							c0.632,1.655,0.191,3.665-1.075,4.903c-1.266,1.238-3.285,1.635-4.926,0.967c0.319,1.858-1.559,3.505-3.436,3.672
							c-1.877,0.167-3.676-0.695-5.363-1.535c-0.149-0.398,0.725-0.344,0.689,0.079c-0.036,0.423-0.529,0.629-0.944,0.715
							c-1.891,0.392-3.897,0.204-5.682-0.532c-0.621-0.256-1.279-0.584-1.933-0.429c-0.41,0.097-0.752,0.374-1.057,0.664
							c-2.567,2.441-3.436,6.133-4.061,9.619c-1.445,8.059-2.242,16.228-2.518,24.411c-0.035,1.041-0.232,2.327-1.219,2.66
							c-1.439,0.486-2.345-1.526-2.525-3.034C396.422,312.885,396.171,301.674,397.2,290.495z"/>
						
							<path style="fill:none;stroke:#FFFFFF;stroke-width:0.2835;stroke-linecap:round;stroke-linejoin:round;stroke-miterlimit:10;" d="
							M395.074,337.859c0.566-1.191,1.136-2.391,1.484-3.663c0.348-1.273,0.466-2.636,0.123-3.909"/>
						<path style="fill:#448260;" d="M401.156,329.828c-0.125-4.317-0.255-8.673-1.292-12.865c-0.821-3.32-2.196-6.477-3.675-9.561
							c-3.434-7.165-8.113-14.599-15.666-17.065c-2.903-0.948-6.023-1.068-9.064-0.787c-9.097,0.841-18.446,6.107-21.167,14.828
							c-0.724,2.321-0.922,4.954,0.227,7.096c1.149,2.142,3.963,3.484,6.138,2.397c-1.292,2.966-0.144,6.785,2.569,8.547
							s6.669,1.258,8.853-1.128c0.912,1.392,2.717,2.133,4.344,1.785c1.627-0.349,2.969-1.765,3.23-3.408
							c3.195,1.706,7.453,1.129,10.08-1.365c0.929-0.882,1.286-2.92,0.009-3.028c0.608,1.09,1.998,1.392,3.109,1.959
							c2.648,1.351,3.887,4.423,4.62,7.304c1.058,4.165,1.514,8.457,1.889,12.737c0.677,7.722,1.103,15.465,1.277,23.214
							c0.022,0.972,0.053,1.993,0.542,2.833c0.49,0.84,1.606,1.401,2.464,0.944c0.569-0.303,0.862-0.942,1.085-1.546
							c1.854-5.017,1.075-10.492,0.924-15.72C401.487,341.275,401.321,335.551,401.156,329.828z"/>
						<path style="fill:#5EA782;" d="M396.672,337.091c0.129-9.772,2.182-19.702,7.293-28.033
							c5.11-8.33,13.528-14.898,23.178-16.442c6.014-0.962,12.657,0.224,17.063,4.428c3.437,3.279,5.132,7.935,6.7,12.419
							c0.519,1.483,1.039,3.097,0.559,4.593c-0.519,1.617-2.168,2.703-3.856,2.888c-1.688,0.185-3.384-0.406-4.832-1.294
							c1.136,0.003,1.667,1.606,1.109,2.596c-0.558,0.99-1.706,1.461-2.774,1.85c-2.118,0.774-4.306,1.515-6.561,1.483
							c-2.255-0.031-4.622-0.978-5.788-2.908c-4.183,1.425-9.081,0.511-12.469-2.326c-2.126,1.785-4.989,2.664-7.75,2.38
							c-1.232,0.747-2.464,1.494-3.696,2.241c-0.637,0.386-1.297,0.794-1.698,1.423c-0.388,0.609-0.487,1.352-0.57,2.069
							c-1.38,11.814-1.266,23.803,0.338,35.589c0.214,1.574,2.137,8.579-0.845,6.209c-2.169-1.723-3.159-7.048-3.668-9.591
							C397.132,350.291,396.587,343.584,396.672,337.091z"/>
						
							<path style="fill:none;stroke:#FFFFFF;stroke-width:0.2835;stroke-linecap:round;stroke-linejoin:round;stroke-miterlimit:10;" d="
							M409.243,302.292c0,0,25.317-16.361,30.678,10.042"/>
						
							<path style="fill:none;stroke:#FFFFFF;stroke-width:0.2835;stroke-linecap:round;stroke-linejoin:round;stroke-miterlimit:10;" d="
							M433.945,300.437c-4.069,3.13-6.868,7.864-7.649,12.937"/>
						
							<path style="fill:none;stroke:#FFFFFF;stroke-width:0.2835;stroke-linecap:round;stroke-linejoin:round;stroke-miterlimit:10;" d="
							M423.251,297.413c-2.595,3.03-4.583,6.579-5.812,10.375"/>
						
							<path style="fill:none;stroke:#FFFFFF;stroke-width:0.2835;stroke-linecap:round;stroke-linejoin:round;stroke-miterlimit:10;" d="
							M430.48,298.111c3.021-0.738,5.663-0.79,8.77-0.641"/>
						
							<path style="fill:none;stroke:#FFFFFF;stroke-width:0.2835;stroke-linecap:round;stroke-linejoin:round;stroke-miterlimit:10;" d="
							M397.318,309.839c0,0-16.636-29.783-33.523-2.052"/>
						
							<path style="fill:none;stroke:#FFFFFF;stroke-width:0.2835;stroke-linecap:round;stroke-linejoin:round;stroke-miterlimit:10;" d="
							M371.742,298.589c0,0-4.908-2.189-12.658,4.727"/>
						
							<path style="fill:none;stroke:#FFFFFF;stroke-width:0.2835;stroke-linecap:round;stroke-linejoin:round;stroke-miterlimit:10;" d="
							M375.096,296.766c0,0,4.262,7.468,0,14.884"/>
						
							<path style="fill:none;stroke:#FFFFFF;stroke-width:0.2835;stroke-linecap:round;stroke-linejoin:round;stroke-miterlimit:10;" d="
							M380.557,295.973c0,0-2.474-4.739-11.224-2.406"/>
						
							<path style="fill:none;stroke:#FFFFFF;stroke-width:0.2835;stroke-linecap:round;stroke-linejoin:round;stroke-miterlimit:10;" d="
							M398.092,311.65c0,0-3.258-35,16.909-42.833c20.167-7.833,20.5,5.618,20.5,5.618"/>
						
							<path style="fill:none;stroke:#FFFFFF;stroke-width:0.2835;stroke-linecap:round;stroke-linejoin:round;stroke-miterlimit:10;" d="
							M420.345,267.102c0,0,9.55,4.102,7.796,15.292"/>
						
							<path style="fill:none;stroke:#FFFFFF;stroke-width:0.2835;stroke-linecap:round;stroke-linejoin:round;stroke-miterlimit:10;" d="
							M414.753,268.915c0,0,6.304,9.592,2.686,18.648"/>
						
							<path style="fill:none;stroke:#FFFFFF;stroke-width:0.2835;stroke-linecap:round;stroke-linejoin:round;stroke-miterlimit:10;" d="
							M417.727,267.846c0,0,5.651-5.637,12.121-4.086"/>
						
							<path style="fill:none;stroke:#FFFFFF;stroke-width:0.2835;stroke-linecap:round;stroke-linejoin:round;stroke-miterlimit:10;" d="
							M409.435,272.077c0,0,0.687-5.329,4.765-6.799"/>
					</g>
					<path style="fill:#22314F;" d="M381.641,357.129h37.684c0,0,4.451,34.642-16.617,36.015
						C381.641,394.516,381.641,371.668,381.641,357.129z"/>
				</g>
			</g>
			<g>
				<g>
					<g>
						<g>
							<g>
								<rect x="343.095" y="187.34" style="fill:#1D886F;" width="30.474" height="7.553"/>
								<rect x="344.888" y="189.708" style="fill:#FFFFFF;" width="20.536" height="2.53"/>
								<path style="fill:#FFFFFF;" d="M369.706,190.973c0,0.658-0.534,1.192-1.192,1.192c-0.659,0-1.192-0.534-1.192-1.192
									c0-0.658,0.534-1.192,1.192-1.192C369.172,189.781,369.706,190.315,369.706,190.973z"/>
							</g>
						</g>
						<rect x="373.569" y="187.34" style="fill:#187059;" width="9.578" height="7.553"/>
						<rect x="374.438" y="188.527" style="fill:#EACFC5;" width="8.71" height="4.893"/>
					</g>
					<g>
						<g>
							<g>
								<rect x="338.74" y="179.787" style="fill:#F75454;" width="30.474" height="7.553"/>
								<rect x="340.533" y="182.155" style="fill:#FFFFFF;" width="20.536" height="2.53"/>
								<path style="fill:#FFFFFF;" d="M365.351,183.42c0,0.658-0.534,1.192-1.192,1.192s-1.192-0.534-1.192-1.192
									c0-0.659,0.534-1.192,1.192-1.192S365.351,182.762,365.351,183.42z"/>
							</g>
						</g>
						<rect x="369.214" y="179.787" style="fill:#D34C4C;" width="9.578" height="7.553"/>
						<rect x="370.083" y="180.973" style="fill:#EACFC5;" width="8.709" height="4.893"/>
					</g>
					<g>
						<g>
							<rect x="384.524" y="164.55" style="fill:#F8A364;" width="7.553" height="30.474"/>
							
								<rect x="378.176" y="175.345" transform="matrix(-1.836970e-16 1 -1 -1.836970e-16 565.0549 -211.834)" style="fill:#FFFFFF;" width="20.536" height="2.53"/>
							<path style="fill:#FFFFFF;" d="M388.444,191.161c-0.658,0-1.192-0.534-1.192-1.192c0-0.658,0.534-1.192,1.192-1.192
								c0.659,0,1.192,0.534,1.192,1.192C389.637,190.627,389.103,191.161,388.444,191.161z"/>
						</g>
						<rect x="392.078" y="164.55" style="fill:#D18654;" width="7.155" height="30.474"/>
					</g>
				</g>
				<g>
					<g>
						<rect x="394.57" y="164.55" style="fill:#F8A364;" width="7.553" height="30.474"/>
						
							<rect x="388.222" y="175.345" transform="matrix(-1.836970e-16 1 -1 -1.836970e-16 575.1003 -221.8796)" style="fill:#FFFFFF;" width="20.536" height="2.53"/>
						<path style="fill:#FFFFFF;" d="M398.49,191.161c-0.659,0-1.192-0.534-1.192-1.192c0-0.658,0.534-1.192,1.192-1.192
							c0.658,0,1.192,0.534,1.192,1.192C399.682,190.627,399.148,191.161,398.49,191.161z"/>
					</g>
					<rect x="402.123" y="164.55" style="fill:#D18654;" width="7.155" height="30.474"/>
				</g>
				<g>
					<g>
						<rect x="404.206" y="164.55" style="fill:#F75454;" width="7.553" height="30.474"/>
						
							<rect x="397.858" y="175.345" transform="matrix(-1.836970e-16 1 -1 -1.836970e-16 584.7365 -231.5158)" style="fill:#FFFFFF;" width="20.536" height="2.53"/>
						<path style="fill:#FFFFFF;" d="M408.126,191.161c-0.658,0-1.192-0.534-1.192-1.192c0-0.658,0.534-1.192,1.192-1.192
							c0.658,0,1.192,0.534,1.192,1.192C409.318,190.627,408.785,191.161,408.126,191.161z"/>
					</g>
					<rect x="411.76" y="164.55" style="fill:#D34C4C;" width="7.155" height="30.474"/>
				</g>
				<g>
					<g>
						<rect x="415.337" y="164.55" style="fill:#1D886F;" width="7.553" height="30.474"/>
						
							<rect x="408.989" y="175.345" transform="matrix(-1.836970e-16 1 -1 -1.836970e-16 595.8671 -242.6464)" style="fill:#FFFFFF;" width="20.536" height="2.531"/>
						<path style="fill:#FFFFFF;" d="M419.257,191.161c-0.658,0-1.192-0.534-1.192-1.192c0-0.658,0.534-1.192,1.192-1.192
							c0.658,0,1.192,0.534,1.192,1.192C420.449,190.627,419.915,191.161,419.257,191.161z"/>
					</g>
					<rect x="422.89" y="164.55" style="fill:#187059;" width="7.155" height="30.474"/>
				</g>
				<rect x="341.864" y="194.494" style="fill:#CCA38F;" width="92.74" height="6.619"/>
			</g>
			<rect x="307.669" y="86.072" style="fill:none;stroke:#22314F;stroke-miterlimit:10;" width="55.298" height="76.378"/>
			<g>
				<rect x="383.147" y="86.072" style="fill:none;stroke:#22314F;stroke-miterlimit:10;" width="39.743" height="46.037"/>
				<rect x="394.278" y="98.965" style="fill:none;stroke:#22314F;stroke-miterlimit:10;" width="17.482" height="20.25"/>
			</g>
		</g>
		<g>
			<ellipse style="fill:#E6E7E8;" cx="250" cy="397.889" rx="125.383" ry="4.686"/>
			<g>
				<path style="fill:#F75454;" d="M337.701,273.309h-4.194c-3.71,0-6.718-3.008-6.718-6.718v-15.795h17.631v15.795
					C344.42,270.301,341.412,273.309,337.701,273.309z"/>
				<path style="fill:#DB3B3B;" d="M326.789,266.59c0,3.711,3.008,6.718,6.718,6.718h4.194c1.406,0,2.711-0.434,3.79-1.173
					c-13.763-2.571-13.497-16.694-13.021-21.341h-1.681V266.59z"/>
				<path style="fill:#F75454;" d="M345.503,265.859h-6.305v-2.379h6.305c0.66,0,1.196-0.537,1.196-1.196v-6.707
					c0-0.659-0.537-1.196-1.196-1.196h-6.305v-2.379h6.305c1.972,0,3.576,1.604,3.576,3.576v6.707
					C349.079,264.255,347.475,265.859,345.503,265.859z"/>
			</g>
			<g>
				<rect x="276.331" y="326.84" style="fill:#2A2A2B;" width="4.669" height="59.235"/>
				<g>
					<rect x="254.361" y="319.154" style="fill:#808285;" width="48.609" height="6.288"/>
					<rect x="270.317" y="323.189" style="fill:#808285;" width="16.697" height="10.157"/>
				</g>
				<path style="fill:#17273F;" d="M317.524,304.615v-70.998c0-17.414-14.248-31.662-31.662-31.662h0
					c-17.414,0-31.662,14.248-31.662,31.662v70.998"/>
				<path style="fill:#17273F;" d="M236.308,321.961h80.209c2.804,0,5.098-2.294,5.098-5.098v-9.458
					c0-2.804-2.294-5.098-5.098-5.098h-80.209c-0.326,0-0.592,0.266-0.592,0.592v18.471
					C235.716,321.695,235.983,321.961,236.308,321.961z"/>
				<g>
					<g>
						<path style="fill:#2A2A2B;" d="M252.889,395.071c3.417-3.383,7.522-5.806,11.951-7.551c4.427-1.721,9.22-2.602,13.997-2.488
							c4.773,0.108,9.52,1.093,13.895,2.886c0.546,0.226,1.098,0.439,1.637,0.677l1.596,0.761c1.077,0.481,2.084,1.091,3.116,1.649
							c1.015,0.589,1.981,1.257,2.969,1.88c0.961,0.665,1.895,1.367,2.829,2.063c0.374,0.279,0.452,0.808,0.173,1.182
							c-0.259,0.348-0.736,0.439-1.103,0.225l-0.038-0.022l-2.93-1.725c-1.004-0.521-1.982-1.085-2.999-1.567
							c-2.021-0.985-4.061-1.93-6.184-2.625c-4.208-1.478-8.604-2.352-13.019-2.431c-2.207-0.065-4.418,0.087-6.598,0.443
							c-2.187,0.324-4.334,0.886-6.447,1.567c-2.107,0.697-4.169,1.569-6.133,2.632c-1.978,1.014-3.909,2.246-5.623,3.582
							l-0.053,0.042c-0.343,0.267-0.837,0.206-1.105-0.137C252.574,395.796,252.609,395.347,252.889,395.071z"/>
					</g>
					<path style="fill:#2A2A2B;" d="M257.007,398.171c0,1.973-1.6,3.573-3.573,3.573c-1.973,0-3.573-1.6-3.573-3.573
						c0-1.973,1.599-3.573,3.573-3.573C255.408,394.598,257.007,396.198,257.007,398.171z"/>
					<ellipse style="fill:#2A2A2B;" cx="278.666" cy="400.822" rx="2.506" ry="3.573"/>
					<path style="fill:#2A2A2B;" d="M307.47,398.171c0,1.973-1.599,3.573-3.573,3.573s-3.573-1.6-3.573-3.573
						c0-1.973,1.599-3.573,3.573-3.573S307.47,396.198,307.47,398.171z"/>
				</g>
				<g>
					<path style="fill:#2A2A2B;" d="M280.144,386.487l-0.748,11.684c-0.026,0.403-0.374,0.71-0.777,0.684
						c-0.372-0.024-0.661-0.321-0.684-0.684l-0.748-11.684c-0.052-0.817,0.567-1.521,1.384-1.573s1.521,0.567,1.573,1.384
						C280.148,386.359,280.148,386.428,280.144,386.487z"/>
				</g>
			</g>
			<g>
				<rect x="128.794" y="276.263" style="fill:#2A2A2B;" width="3.765" height="122.047"/>
				<rect x="367.068" y="276.263" style="fill:#2A2A2B;" width="3.765" height="122.047"/>
			</g>
			<g>
				<g>
					<path style="fill:#A05E47;" d="M272.656,288.557l-65.549,1.677l-0.441,0.009c-5.095,0.127-9.538,3.861-10.382,9.075
						l-8.929,55.213c-0.738,4.649,2.199,9.198,6.853,10.334c4.902,1.196,9.845-1.808,11.042-6.71l11.097-45.473l56.889-1.455
						c6.26-0.16,11.205-5.365,11.045-11.625C284.121,293.341,278.916,288.397,272.656,288.557z"/>
					<path style="fill:#8C4A38;" d="M226.83,312.414l46.406-1.187c1.766-0.045,3.421-0.503,4.892-1.262l-36.793-20.607
						l-15.761,0.403C227.294,293.279,232.005,304.484,226.83,312.414z"/>
					<path style="fill:#A05E47;" d="M301.447,294.669c-2.662-5.668-9.415-8.105-15.083-5.443l-62.453,29.333l-0.313,0.144
						c-4.28,2.014-6.899,6.679-6.111,11.582l9.774,60.819c0.8,4.913,5.302,8.447,10.323,7.945c5.221-0.521,9.03-5.176,8.509-10.396
						l-5.288-52.975l55.199-25.926C301.672,307.09,304.109,300.337,301.447,294.669z"/>
					<path style="fill:#8C4A38;" d="M252.259,305.245l-12.357,5.804c2.613,1.3,14.566,7.89,9.132,17.202
						c-1.216,2.083-2.165,3.687-2.911,4.93l25.005-11.745l-1.944-8.107C269.185,313.329,260.456,307.005,252.259,305.245z"/>
					<path style="fill:#D1D3D4;" d="M302.357,277.508c0,0,8.624,10.742,4.812,23.492s-50.692,27.25-50.692,27.25
						s-2.186-15.333-16.454-17.583c0,0-7.327-12.783-14.676-20.976c0,0,29.15-2.307,28.491-2.307
						C253.18,287.384,302.357,277.508,302.357,277.508z"/>
					<g>
						<path style="fill:#8E8476;" d="M306.619,291.969c-0.274-5.019-1.754-9.114-1.816-9.286l-0.939,0.344
							c0.06,0.162,5.811,16.273-3.682,22.87c-7.59,5.275-33.138,15.499-44.291,19.849c0.105,0.357,0.192,0.683,0.265,0.975
							c11.134-4.33,36.786-14.576,44.596-20.003C304.958,303.795,306.986,298.695,306.619,291.969z"/>
						<path style="fill:#8E8476;" d="M301.815,284.182l-0.93,0.371c0.056,0.14,5.477,14.027-2.195,18.464
							c-6.084,3.517-31.909,14.069-44.196,19.027c0.145,0.312,0.28,0.617,0.406,0.917c12.328-4.97,38.073-15.484,44.291-19.08
							C307.609,299.014,302.055,284.785,301.815,284.182z"/>
						<path style="fill:#8E8476;" d="M299.017,296.99c2.11-5.679-0.67-11.66-0.789-11.912l-0.904,0.428
							c0.027,0.058,2.719,5.864,0.753,11.143c-1.071,2.878-3.334,5.097-6.724,6.596c-8.914,3.941-28.647,11.558-38.77,15.427
							c0.195,0.285,0.383,0.571,0.559,0.856c10.191-3.896,29.742-11.446,38.615-15.369
							C295.406,302.545,297.848,300.134,299.017,296.99z"/>
						<path style="fill:#8E8476;" d="M293.796,287.203l-0.949,0.316c0.009,0.024,0.806,2.473,0.093,5.538
							c-0.962,4.132-4.081,7.316-9.272,9.466c-9.99,4.136-26.548,10.689-33.357,13.374c0.253,0.258,0.496,0.521,0.73,0.787
							c7.017-2.769,23.183-9.17,33.009-13.237C297.224,297.993,293.831,287.31,293.796,287.203z"/>
						<path style="fill:#8E8476;" d="M289.446,289.386l-0.992-0.117c-0.622,5.283-4.365,9.869-7.47,10.837
							c-2.551,0.794-24.17,10.084-32.912,13.854c0.31,0.227,0.609,0.462,0.897,0.703c9.001-3.879,29.886-12.846,32.312-13.602
							C284.671,300.004,288.757,295.239,289.446,289.386z"/>
						<path style="fill:#8E8476;" d="M280.329,296.189c-6.42,3.051-26.153,11.951-35.204,16.024
							c0.393,0.184,0.771,0.379,1.138,0.584c9.347-4.207,28.236-12.73,34.496-15.706L280.329,296.189z"/>
						<path style="fill:#8E8476;" d="M275.961,295.515c-7.007,3.265-27.14,12.254-34.358,15.472
							c0.518,0.124,1.015,0.269,1.498,0.427c7.983-3.561,26.599-11.879,33.282-14.993L275.961,295.515z"/>
						<path style="fill:#8E8476;" d="M248.481,299.544l0.009-0.079l-0.017-0.077c-1.458-7.005,2.868-10.701,3.053-10.855
							l-0.638-0.771c-0.203,0.168-4.933,4.177-3.416,11.721c-0.146,0.458-1.449,3.372-11.078,5.246
							c0.199,0.311,0.389,0.613,0.575,0.907C247.725,303.469,248.435,299.961,248.481,299.544z"/>
						<path style="fill:#8E8476;" d="M251.265,300.642l0.037-0.123l-0.026-0.126c-1.285-5.979,4.647-11.828,4.708-11.887
							l-0.696-0.718c-0.26,0.252-6.296,6.196-5.021,12.661c-0.3,0.628-2.341,4.042-12.174,6.989c0.193,0.315,0.37,0.605,0.538,0.881
							C249.845,304.907,251.208,300.834,251.265,300.642z"/>
						<path style="fill:#8E8476;" d="M261.235,290.751l-0.555-0.832c-9.281,6.188-7.774,11.585-7.706,11.812l0.958-0.286
							C253.919,301.396,252.629,296.488,261.235,290.751z"/>
						<path style="fill:#8E8476;" d="M256.059,302.454l0.971,0.236c1.721-7.074,8.581-9.674,8.649-9.699l-0.344-0.939
							C265.033,292.162,257.908,294.85,256.059,302.454z"/>
						<path style="fill:#8E8476;" d="M245.208,298.943l0.014-0.308c0.172-3.986,1.55-8.587,2.256-10.714
							c-0.353,0.029-0.715,0.058-1.085,0.088c-0.731,2.246-1.936,6.437-2.155,10.271c-1.119,0.486-5.428,2.307-9.788,3.465
							c0.199,0.298,0.393,0.591,0.584,0.882c4.951-1.347,9.647-3.447,9.893-3.558L245.208,298.943z"/>
						<path style="fill:#8E8476;" d="M244.198,288.187c-0.345,0.028-0.693,0.056-1.045,0.084c-0.313,1.158-0.877,2.752-1.882,4.385
							c-1.995,3.242-4.9,5.382-8.641,6.418c0.202,0.291,0.403,0.581,0.6,0.868C240.922,297.625,243.434,291.193,244.198,288.187z"/>
						<path style="fill:#8E8476;" d="M238.306,288.66c-0.448,0.036-0.893,0.071-1.336,0.107c-2.673,3.371-5.628,4.836-7.886,5.451
							c0.218,0.284,0.435,0.568,0.651,0.854C232.268,294.304,235.486,292.551,238.306,288.66z"/>
					</g>
					<path style="fill:#D1D3D4;" d="M307.169,301c2.824-9.446-1.176-17.785-3.439-21.475c-0.6,0.3-1.166,0.682-1.68,1.105
						c-1.306,1.078-2.376,2.414-3.645,3.535c-2.964,2.621-6.898,3.95-10.831,4.376c-3.934,0.426-7.906,0.012-11.831-0.489
						c-4.255-0.543-8.542-1.207-12.576-2.627c-5.636,1.151-9.516,1.957-9.328,1.957c0.185,0-1.985,0.182-5.2,0.444
						c0.005,0.011,0.006,0.022,0.011,0.033c0.371,0.831,0.424,1.745,0.793,2.602c0.381,0.885,0.953,1.688,1.659,2.344
						c0.804,0.747,1.787,1.305,2.856,1.565c1.23,0.3,2.523,0.241,3.758,0.517c2.089,0.466,3.837,1.836,5.646,2.982
						c4.097,2.596,8.837,4.168,13.674,4.533c1.384,0.105,2.817,0.105,4.108-0.404c2.957-1.164,4.606-4.74,7.708-5.431
						c2.203-0.491,4.686,0.622,6.68-0.434c1.993-1.056,2.488-3.757,4.232-5.187c0.315-0.259,0.705-0.48,1.11-0.429
						c0.445,0.056,0.781,0.422,1.042,0.786c2.121,2.949,1.911,6.975,1.031,10.5c-0.608,2.434-1.511,4.79-2.648,7.026
						C303.856,306.238,306.397,303.583,307.169,301z"/>
					<g>
						<path style="fill:#17273F;" d="M240.023,310.809c-0.052,0-0.102-0.029-0.127-0.079c-0.034-0.07-0.005-0.155,0.065-0.189
							c0.114-0.056,11.452-5.596,16.534-7.483c0.072-0.026,0.154,0.01,0.183,0.083c0.027,0.074-0.01,0.155-0.083,0.183
							c-5.07,1.883-16.395,7.416-16.508,7.472C240.066,310.804,240.044,310.809,240.023,310.809z"/>
						<path style="fill:#17273F;" d="M256.858,303.307c-0.022,0-0.043-0.005-0.064-0.015c-4.426-2.2-9.099-3.935-13.89-5.154
							c-0.076-0.02-0.122-0.097-0.102-0.173c0.019-0.075,0.098-0.122,0.172-0.103c4.81,1.226,9.502,2.967,13.946,5.176
							c0.069,0.035,0.099,0.12,0.064,0.19C256.96,303.278,256.91,303.307,256.858,303.307z"/>
						<path style="fill:#17273F;" d="M255.635,302.714c-0.019,0-0.038-0.004-0.057-0.012c-1.725-0.744-3.662-0.824-5.342-0.842
							c-1.063-0.009-2.153,0.006-3.248,0.05c-0.7,0.029-1.513,0.073-2.294,0.224c-0.084,0.018-0.152-0.035-0.166-0.111
							c-0.016-0.077,0.035-0.151,0.111-0.166c0.801-0.155,1.626-0.2,2.337-0.229c1.102-0.044,2.2-0.063,3.263-0.05
							c1.707,0.018,3.679,0.1,5.452,0.865c0.071,0.031,0.104,0.114,0.073,0.186C255.743,302.682,255.69,302.714,255.635,302.714z"/>
						<path style="fill:#17273F;" d="M251.691,303.127c-0.078,0-0.142-0.064-0.142-0.142c0-0.078,0.064-0.142,0.142-0.142
							l3.523-0.006l0,0c0.078,0,0.142,0.064,0.142,0.142s-0.064,0.142-0.142,0.142L251.691,303.127L251.691,303.127z"/>
					</g>
					<path style="fill:#A05E47;" d="M226.63,387.176c0,0-2.279,7.043-10.878,9.336c0,0-2.58,1.147,0,4.586
						c2.58,3.44,23.046-2.257,23.046-2.257s10.035-0.578,6.894-14.208C242.551,371.002,226.63,387.176,226.63,387.176z"/>
					<path style="fill:#A05E47;" d="M188.21,348.939c0,0-5.01,5.45-13.781,3.947c0,0-2.823-0.034-1.913,4.168
						c0.91,4.202,21.887,7.563,21.887,7.563s9.361,3.661,12.193-10.037C209.427,340.882,188.21,348.939,188.21,348.939z"/>
					<g>
						<path style="fill:#2B3990;" d="M186.07,363.335c0,0,4.172-9.664-1.012-12.198c-4.885-2.388-12.942-1.912-16.553,3.359
							c-0.432,0.63-0.355,1.474,0.156,2.041C170.276,358.327,174.849,361.967,186.07,363.335z"/>
						<path style="fill:#2B3990;" d="M186.07,363.335l19.092,3.974c0.484,0.101,0.96-0.203,1.073-0.684l0,0
							c0.116-0.495-0.195-0.99-0.692-1.099l-20.725-4.552C184.818,360.974,183.711,362.441,186.07,363.335z"/>
					</g>
					<g>
						<path style="fill:#2B3990;" d="M230.157,402.564c0,0-0.222-10.523-5.989-10.674c-5.436-0.142-12.566,3.64-13.66,9.934
							c-0.131,0.752,0.29,1.488,0.99,1.791C213.71,404.572,219.383,405.983,230.157,402.564z"/>
						<path style="fill:#2B3990;" d="M230.157,402.564l19.017-4.319c0.482-0.11,0.789-0.584,0.692-1.068l0,0
							c-0.1-0.499-0.589-0.819-1.086-0.712l-20.743,4.472C228.037,400.937,227.64,402.731,230.157,402.564z"/>
					</g>
					<path style="fill:#D1D3D4;" d="M255.765,302.629c-1.214-0.44-7.73-3.596-10.544-3.993c0,0,0.613,4.36-7.67,7.929
						c1.535,2.468,2.472,4.102,2.472,4.102c0.176,0.028,0.342,0.066,0.514,0.098l15.521-7.193
						C256.059,303.572,256.979,303.069,255.765,302.629z"/>
				</g>
				<g>
					<path style="fill:#6F93DD;" d="M204.82,274.016c-4.395,0-8.12-3.383-8.469-7.84c-0.367-4.682,3.131-8.775,7.814-9.142
						c29.603-2.319,40.965-32.282,41.435-33.556c1.618-4.396,6.495-6.671,10.896-5.066c4.402,1.604,6.684,6.452,5.095,10.859
						c-0.61,1.694-15.421,41.532-56.097,44.719C205.268,274.008,205.043,274.016,204.82,274.016z"/>
					<g>
						<g>
							<path style="fill:#8AAAF9;" d="M244.018,229.869c0.059,2.824,0.791,5.501,1.572,8.366c0.034,0.124,0.068,0.249,0.101,0.374
								c1.372,5.14,1.971,10.45,2.566,15.736c0.439,3.901,0.874,7.887,0.032,11.721c-0.343,1.559-0.691,3.011-0.813,4.593
								c-0.136,1.765,0.515,3.435,0.975,5.108c0.489,1.778,0.747,3.661,0.377,5.468c-0.21,1.025-0.718,2.144-0.426,3.192
								c0.236,0.848,0.283,1.581,0.305,2.478c0.046,1.831,0.433,3.423,2.034,4.509c2.006,1.36,4.924,0.987,7.204,1.881
								c2.399,0.941,4.535,2.431,6.715,3.777c1.293,0.798,2.619,1.558,4.045,2.084c1.454,0.537,2.991,0.823,4.534,0.961
								c3.686,0.33,7.585-0.239,10.615-2.363c1.95-1.366,3.565-3.369,5.868-3.972c2.053-0.538,4.471,0.1,6.176-1.163
								c0.665-0.493,1.118-1.216,1.717-1.787c1.334-1.272,3.252-1.684,4.844-2.613c4.326-2.525,2.061-12.349,1.821-16.611
								c-0.378-6.711-0.756-13.421-1.136-20.132c-0.491-8.673-0.458-17.569-1.506-26.197c-0.099-0.814-2.701-20.269-30.846-16.481
								c-6.226,0.838-12.604,2.481-17.89,6.002c-3.131,2.085-5.818,4.882-7.427,8.308c-0.527,1.123-1.009,2.354-1.222,3.583
								C244.064,227.782,243.996,228.835,244.018,229.869z"/>
						</g>
						<g>
							<rect x="180.244" y="271.148" style="fill:#171E26;" width="80.966" height="2.314"/>
						</g>
						<path style="fill:#FFFFFF;" d="M270.059,279.508c0,0,6.391-4.702,8.004-19.129c1.614-14.427,4.713-31.632,5.247-37.296
							c0.36-3.814,0.235-10.423,0.115-14.337c-3.504-0.55-7.662-0.616-12.632,0.053c-4.474,0.602-8.199,1.547-11.309,2.708
							c0.121,1.792,2.704,39.946,4.111,50.902C265.036,273.63,270.059,279.508,270.059,279.508z"/>
						<path style="fill:#A7A9AC;" d="M268.087,222.449c-0.006,0-0.012,0-0.016-0.001c-1.969-0.196-3.822-1.284-4.955-2.907
							c-1.132-1.624-1.513-3.737-1.019-5.652c0.023-0.092,0.119-0.146,0.208-0.124c0.092,0.023,0.147,0.118,0.124,0.208
							c-0.47,1.821-0.108,3.829,0.967,5.372c1.077,1.544,2.838,2.576,4.708,2.764c0.094,0.009,0.162,0.093,0.153,0.186
							C268.248,222.383,268.174,222.449,268.087,222.449z"/>
						<path style="fill:#A7A9AC;" d="M275.316,220.116c-0.056,0-0.113-0.028-0.145-0.08c-0.051-0.081-0.026-0.186,0.054-0.235
							c2.727-1.693,4.703-4.457,5.42-7.583c0.021-0.093,0.122-0.152,0.203-0.128c0.093,0.02,0.149,0.112,0.128,0.203
							c-0.737,3.215-2.767,6.057-5.57,7.797C275.378,220.107,275.346,220.116,275.316,220.116z"/>
						<g>
							<path style="fill:#A05E47;" d="M280.514,197.273l-0.811,11.797c-0.028,0.404-0.169,0.792-0.407,1.12l-4.924,6.778
								c-3.104,4.273-9.856,2.242-10.088-3.034l-0.127-2.884l0.739-10.145L280.514,197.273z"/>
						</g>
						<path style="fill:#8C4A38;" d="M278.163,201.173l-13.535,3.416l-0.394,5.4C271.681,209.541,278.163,201.173,278.163,201.173z"
							/>
						<path style="fill:#A05E47;" d="M269.855,208.334l-6.986,0.129c-5.973,0.11-10.951-4.686-11.062-10.659l-0.358-19.324
							c-0.111-5.973,4.686-10.951,10.659-11.062l6.986-0.129c5.973-0.111,10.951,4.686,11.061,10.659l0.358,19.324
							C280.625,203.246,275.828,208.224,269.855,208.334z"/>
						<path style="fill:#8C4A38;" d="M254.05,179.209c1.194,1.03,3.128,1.066,4.359,0.08c0.88,0.765,2.311,0.795,3.221,0.067
							c0.732,1.001,2.31,1.242,3.307,0.505c0.805,0.775,2.197,0.835,3.065,0.132c0.542,0.51,1.428,0.607,2.067,0.226
							c0.079,0.457,0.491,0.799,0.934,0.933c0.444,0.135,0.918,0.102,1.381,0.067c-0.164,0.546,0.109,1.151,0.537,1.528
							c0.428,0.377,0.986,0.569,1.534,0.726c-0.305,0.506-0.322,1.173-0.043,1.693c0.279,0.52,0.844,0.876,1.434,0.902
							c-0.51,0.297-0.629,1.094-0.228,1.527c0.123,0.132,0.281,0.23,0.397,0.368c0.194,0.231,0.25,0.547,0.397,0.811
							c0.147,0.264,0.479,0.486,0.741,0.333c0.202-1.749,2.198-2.641,3.146-4.124c0.652-1.021,0.778-2.308,0.593-3.505
							c-0.185-1.197-0.655-2.329-1.123-3.446c-0.406-0.968-0.832-1.963-1.585-2.694c-0.99-0.962-2.398-1.332-3.745-1.63
							c-6.042-1.337-12.305-1.955-18.434-1.096c-1.581,0.222-3.232,0.581-4.417,1.651c-1.334,1.204-1.95,4.52,0.237,5.17
							C252.559,179.651,253.379,179.591,254.05,179.209z"/>
						<g>
							<path style="fill:#15191C;" d="M265.646,188.695c0.069,0.58,0.446,1.012,0.842,0.965c0.396-0.047,0.662-0.555,0.593-1.135
								c-0.069-0.58-0.446-1.012-0.842-0.965C265.843,187.606,265.577,188.114,265.646,188.695z"/>
							<path style="fill:#15191C;" d="M254.342,189.255c0.069,0.58,0.446,1.012,0.842,0.965c0.396-0.047,0.662-0.555,0.593-1.135
								c-0.069-0.58-0.446-1.012-0.842-0.965C254.538,188.166,254.273,188.675,254.342,189.255z"/>
						</g>
						<path style="fill:#171E26;" d="M252.503,185.662c-0.123,0-0.248-0.038-0.355-0.116c-0.268-0.196-0.327-0.573-0.13-0.841
							c2-2.734,6.077-1.706,6.252-1.66c0.321,0.083,0.513,0.411,0.429,0.733c-0.085,0.322-0.416,0.513-0.734,0.432
							c-0.033-0.011-3.462-0.863-4.976,1.205C252.871,185.576,252.688,185.662,252.503,185.662z"/>
						<path style="fill:#442218;" d="M260.695,199.911c-1.536,0-2.58-0.208-2.613-0.215c-0.092-0.019-0.15-0.109-0.132-0.202
							c0.019-0.092,0.107-0.15,0.202-0.132c0.102,0.025,10.303,2.05,14.026-6.995c0.036-0.086,0.134-0.133,0.222-0.093
							c0.087,0.035,0.129,0.135,0.093,0.222C269.857,198.9,264.079,199.911,260.695,199.911z"/>
						<path style="fill:#171E26;" d="M271.046,186.604c-0.212,0-0.417-0.112-0.527-0.31c-1.948-3.526-6.811-1.901-7.018-1.831
							c-0.316,0.107-0.656-0.059-0.765-0.373c-0.108-0.314,0.058-0.656,0.372-0.765c2.075-0.721,6.514-1.147,8.465,2.385
							c0.161,0.292,0.055,0.657-0.235,0.818C271.245,186.58,271.145,186.604,271.046,186.604z"/>
						<path style="fill:#171E26;" d="M253.952,177.538c0.39,0.684,1.165,1.131,1.952,1.125c0.787-0.006,1.556-0.464,1.935-1.154
							c1.078,1.171,3.195,1.124,4.22-0.093c0.038,0.869,0.903,1.522,1.768,1.611c0.865,0.089,1.713-0.248,2.5-0.617
							c0.454,0.699,1.395,0.949,2.218,0.819c0.824-0.13,1.561-0.568,2.276-0.997c0.11,0.738,0.77,1.299,1.484,1.518
							c0.714,0.22,1.479,0.165,2.223,0.109c-0.518,0.681-0.629,1.649-0.28,2.429c0.35,0.781,1.146,1.342,1.999,1.408
							c-0.594,0.525-0.807,1.437-0.508,2.171c0.3,0.734,1.091,1.236,1.882,1.195c-0.615-0.042-1.118,0.623-1.053,1.236
							c0.065,0.613,0.559,1.113,1.124,1.361c0.51,0.224,1.166,0.255,1.569-0.128c-0.158,0.473,0.126,1.046,0.597,1.208
							c0.471,0.162,1.047-0.117,1.213-0.586c1.368,0.794,3.114,0.087,4.415-0.813c0.73-0.506,1.457-1.128,1.697-1.983
							c0.24-0.855-0.249-1.956-1.133-2.045c1.105-0.421,2.21-1.075,2.71-2.146c0.5-1.071,0.102-2.606-1.028-2.955
							c0.949-0.664,1.956-1.404,2.311-2.506c0.356-1.102-0.37-2.593-1.526-2.524c0.56-0.853,1.005-1.843,0.916-2.859
							c-0.089-1.016-0.861-2.024-1.879-2.087c0.045-0.614,0.257-1.204,0.359-1.811c0.102-0.608,0.078-1.281-0.295-1.772
							c-0.373-0.49-1.184-0.667-1.611-0.223c0.141-0.531,0.281-1.105,0.085-1.618c-0.196-0.513-0.883-0.866-1.315-0.526
							c-0.285-0.97-1.481-1.555-2.421-1.186c0.269-1.199-0.348-2.541-1.434-3.118c-1.085-0.577-2.543-0.338-3.387,0.555
							c-0.568-0.759-1.843-0.834-2.496-0.146c-0.202-1.021-1.669-1.51-2.443-0.814c-0.965-0.983-2.11-1.894-3.47-2.108
							c-1.361-0.215-2.946,0.501-3.288,1.835c-0.278-0.446-0.981-0.429-1.393-0.102c-0.412,0.326-0.607,0.849-0.782,1.345
							c-0.909-0.779-2.521-0.454-3.057,0.616c-0.562-0.556-1.294-1.005-2.084-0.991c-0.79,0.015-1.595,0.633-1.599,1.423
							c-0.887-0.318-1.922-0.369-2.735,0.108c-0.813,0.477-1.282,1.579-0.854,2.419c-0.833-0.093-1.702,0.315-2.163,1.014
							c-0.461,0.7-0.492,1.66-0.078,2.388c-0.806,0.121-1.603,0.58-1.933,1.325c-0.33,0.745-0.041,1.765,0.714,2.072
							c-1.246,0.328-1.717,2.197-0.775,3.076c0.212,0.198,0.499,0.406,0.463,0.694c-0.021,0.17-0.154,0.3-0.257,0.436
							c-0.47,0.617-0.347,1.602,0.26,2.084c-0.524-0.007-0.876,0.648-0.702,1.143c0.174,0.495,0.705,0.789,1.225,0.853
							c-0.544,0.263-0.893,0.883-0.836,1.485c0.057,0.602,0.517,1.145,1.101,1.301c-0.377,0.059-0.347,0.611-0.214,0.968
							c0.109,0.292,0.237,0.608,0.509,0.76c0.495,0.278,1.137-0.214,1.229-0.774c0.127-0.777-0.281-1.369-0.161-2.152
							c0.147-0.954,0.297-1.75-0.084-2.69C252.061,178.463,254.438,178.39,253.952,177.538z"/>
						<g>
							<path style="fill:#A05E47;" d="M283.853,190.649c0.036,1.943-1.51,3.548-3.453,3.584c-1.943,0.036-3.547-1.51-3.583-3.453
								c-0.036-1.943,1.51-3.547,3.453-3.583C282.213,187.16,283.817,188.706,283.853,190.649z"/>
							<path style="fill:#663022;" d="M280.44,193.314c-0.051,0-0.101-0.022-0.135-0.066c-0.058-0.074-0.043-0.182,0.031-0.24
								c0.932-0.722,1.393-1.494,1.37-2.292c-0.039-1.394-1.533-2.441-1.548-2.45c-0.078-0.054-0.098-0.16-0.045-0.237
								c0.055-0.079,0.161-0.096,0.237-0.045c0.068,0.047,1.653,1.157,1.698,2.723c0.026,0.913-0.48,1.779-1.503,2.572
								C280.513,193.302,280.477,193.314,280.44,193.314z"/>
							<path style="fill:#663022;" d="M279.263,192.101c-0.01,0-0.021-0.001-0.033-0.004c-0.093-0.018-0.153-0.107-0.134-0.2
								c0.152-0.775,0.49-1.318,1.009-1.613c0.809-0.461,1.738-0.139,1.777-0.125c0.088,0.032,0.134,0.129,0.103,0.217
								c-0.032,0.089-0.128,0.132-0.217,0.105c-0.007-0.003-0.829-0.283-1.497,0.1c-0.427,0.244-0.71,0.709-0.842,1.381
								C279.415,192.044,279.344,192.101,279.263,192.101z"/>
						</g>
						<g>
							
								<path style="fill:none;stroke:#663022;stroke-width:0.4252;stroke-linecap:round;stroke-linejoin:round;stroke-miterlimit:10;" d="
								M256.997,191.039c-0.714,0.795-0.689,2.144,0.053,2.913c0.556,0.576,1.379,0.792,2.164,0.948
								c0.778,0.155,1.572,0.275,2.363,0.216c0.791-0.06,1.587-0.313,2.187-0.831c0.523-0.452,0.876-1.096,0.975-1.779
								c0.065-0.446,0.02-0.92-0.2-1.314c-0.219-0.394-0.631-0.695-1.081-0.712"/>
							
								<path style="fill:none;stroke:#663022;stroke-width:0.4252;stroke-linecap:round;stroke-linejoin:round;stroke-miterlimit:10;" d="
								M262.454,194.96c0,0-0.161-2.354,2.284-2.455"/>
							
								<path style="fill:none;stroke:#663022;stroke-width:0.4252;stroke-linecap:round;stroke-linejoin:round;stroke-miterlimit:10;" d="
								M256.477,192.505c0,0,1.884,0.316,1.992,2.217"/>
						</g>
					</g>
					
						<path style="fill:none;stroke:#2F61B2;stroke-width:0.2835;stroke-linecap:round;stroke-linejoin:round;stroke-miterlimit:10;" d="
						M269.727,299.489c-4.135-14.785,0.468-19.981,0.468-19.981s6.571-6.806,7.868-19.129c1.189-11.297,4.355-30.527,4.355-30.527"
						/>
					
						<path style="fill:none;stroke:#2F61B2;stroke-width:0.2835;stroke-linecap:round;stroke-linejoin:round;stroke-miterlimit:10;" d="
						M260.957,229.852c0,0,1.925,26.952,2.637,33.655c0.713,6.703,4.657,14.319,6.464,16.001"/>
					<path style="opacity:0.6;fill:#6A93E5;" d="M304.281,271.608c-0.378-6.711-0.756-13.421-1.135-20.132
						c-0.491-8.673-0.458-17.569-1.506-26.197c-0.007-0.056-0.028-0.209-0.066-0.43l-13.832,4.814
						c0.143,0.586,10.164,27.303-12.596,32.323l-12.442,9.163l-9.112,3.518h-5.459c0.109,0.367,0.219,0.734,0.32,1.101
						c0.489,1.778,0.747,3.661,0.378,5.468c-0.21,1.025-0.718,2.144-0.426,3.192c0.236,0.848,0.283,1.581,0.305,2.478
						c0.004,0.155,0.014,0.305,0.024,0.457c11.632-3.151,35.883-8.176,55.841-2.12C305.794,281.218,304.462,274.828,304.281,271.608
						z"/>
					
						<path style="fill:none;stroke:#2F61B2;stroke-width:0.2835;stroke-linecap:round;stroke-linejoin:round;stroke-miterlimit:10;" d="
						M247.932,251.506c0,0-1.836-12.554-3.217-16.651"/>
					
						<path style="fill:none;stroke:#2F61B2;stroke-width:0.2835;stroke-linecap:round;stroke-linejoin:round;stroke-miterlimit:10;" d="
						M242.558,240.04c0,0,3.78,3.599,4.77,7.577"/>
					<g>
						<path style="fill:#A05E47;" d="M247.691,269.105c-1.72-0.067-3.389-0.96-4.399-2.353c-0.18-0.248-0.349-0.519-0.612-0.676
							c-0.447-0.265-1.016-0.123-1.506,0.049c-2.431,0.852-4.682,2.261-7.216,2.726c-0.353,0.065-0.753,0.1-1.035-0.121
							c-0.419-0.327-0.316-1.003-0.028-1.45c0.942-1.46,3.286-1.906,3.588-3.618c-1.235-0.529-2.59,0.288-3.905,0.562
							c-0.76,0.158-1.587,0.122-2.263-0.258c-0.676-0.38-1.161-1.15-1.06-1.92c0.157-1.193,1.47-1.8,2.569-2.291
							c1.839-0.821,3.553-1.898,5.193-3.067c2.228-1.588,4.593-3.441,7.326-3.32c2.326,0.103,4.314,1.627,6.498,2.436
							c1.85,0.685,4.029,0.957,5.274,2.488c0.582,0.716,0.873,1.619,1.14,2.502c0.611,2.014,1.412,6.821-2.057,6.345
							c-0.583-0.08-1.14-0.335-1.723-0.406c-0.931-0.114-1.017,0.243-1.662,0.834C250.703,268.585,249.202,269.164,247.691,269.105z
							"/>
						
							<path style="fill:none;stroke:#663022;stroke-width:0.4252;stroke-linecap:round;stroke-linejoin:round;stroke-miterlimit:10;" d="
							M235.989,264.671c0,0,1.886-2.975,2.555-4.716"/>
						
							<path style="fill:none;stroke:#663022;stroke-width:0.4252;stroke-linecap:round;stroke-linejoin:round;stroke-miterlimit:10;" d="
							M230.419,262.313c0,0,5.223-1.197,8.393-5.037"/>
						<path style="fill:#8AAAF9;" d="M315.587,261.664l-15.924-41.732c-1.674-4.387-6.585-6.587-10.977-4.914
							c-4.389,1.674-6.588,6.589-4.914,10.977l11.522,30.197h-40.182c0,0-2.685,6.441,0,17.008h52.528
							c2.798,0,5.417-1.376,7.004-3.68C316.233,267.216,316.584,264.279,315.587,261.664z"/>
						
							<path style="fill:none;stroke:#2F61B2;stroke-width:0.2835;stroke-linecap:round;stroke-linejoin:round;stroke-miterlimit:10;" d="
							M285.172,229.663l10.123,26.529l-33.789,0.225l-6.392-0.225c0,0-2.868,6.583,0,17.008"/>
						
							<path style="fill:none;stroke:#2F61B2;stroke-width:0.2835;stroke-linecap:round;stroke-linejoin:round;stroke-miterlimit:10;" d="
							M295.44,256.324c1.825,0.692,3.506,1.764,4.902,3.128"/>
						
							<path style="fill:none;stroke:#2F61B2;stroke-width:0.2835;stroke-linecap:round;stroke-linejoin:round;stroke-miterlimit:10;" d="
							M295.924,255.842c0.954,0.306,1.921,0.571,2.898,0.793"/>
						
							<path style="fill:none;stroke:#2F61B2;stroke-width:0.2835;stroke-linecap:round;stroke-linejoin:round;stroke-miterlimit:10;" d="
							M294.952,257.511c0.947,0.658,1.873,1.347,2.774,2.067"/>
						
							<line style="fill:none;stroke:#2F61B2;stroke-width:0.2835;stroke-linecap:round;stroke-linejoin:round;stroke-miterlimit:10;" x1="301.393" y1="224.464" x2="312.946" y2="254.742"/>
					</g>
					<path style="fill:#6A93E5;" d="M281.97,232.41c0,0,3.769-20.471,12.089-19.476l3.743,3.644c0,0,6.732-14.926-17.467-16.667
						l-0.632,9.16C279.703,209.07,283.334,211.908,281.97,232.41z"/>
					<path style="fill:#6A93E5;" d="M260.893,231.328c0,0-1.407-14.756-8.991-15.767c0,0-7.109-9.122,1.448-12.41
						c0,0,3.526,5.649,10.998,5.285l-0.113,1.552c0,0-2.959,0.906-3.651,1.136C259.892,211.354,261.288,226.463,260.893,231.328z"/>
					<g>
						<path style="opacity:0.6;fill:#6A93E5;" d="M279.702,209.07c0,0,1.521,1.197,2.224,7.599
							c0.986-4.568,3.672-10.651,10.855-13.686c-2.761-1.511-6.734-2.662-12.447-3.073L279.702,209.07z"/>
						<path style="opacity:0.6;fill:#6A93E5;" d="M264.235,209.988l0.113-1.552c-7.472,0.364-10.998-5.285-10.998-5.285
							c-2.591,0.995-3.741,2.527-4.091,4.177c2.909-0.005,8.259,0.488,11.288,3.835c0.012-0.016,0.023-0.036,0.037-0.04
							C261.276,210.894,264.235,209.988,264.235,209.988z"/>
					</g>
					
						<path style="fill:none;stroke:#2F61B2;stroke-width:0.2835;stroke-linecap:round;stroke-linejoin:round;stroke-miterlimit:10;" d="
						M282.255,217.585c0,0-0.422-8.277,6.927-12.504"/>
					
						<path style="fill:none;stroke:#2F61B2;stroke-width:0.2835;stroke-linecap:round;stroke-linejoin:round;stroke-miterlimit:10;" d="
						M253.59,207.419c0,0,5.273,1.064,6.993,3.705"/>
					
						<path style="fill:none;stroke:#2F61B2;stroke-width:0.2835;stroke-linecap:round;stroke-linejoin:round;stroke-miterlimit:10;" d="
						M286.253,219.277c0,0,3.992-9.846,10.82-5.179"/>
					<path style="fill:#2A2A2B;" d="M234.371,273.462h-54.126c-0.158,0-0.303-0.129-0.322-0.287l-4.884-39.782
						c-0.019-0.158,0.094-0.287,0.252-0.287h54.126c0.158,0,0.303,0.129,0.322,0.287l4.885,39.782
						C234.642,273.333,234.528,273.462,234.371,273.462z"/>
					<g>
						<path style="fill:#FFFFFF;" d="M200.52,257.846c0.418,0.387,1,0.537,1.563,0.62c0.914,0.134,1.921,0.103,2.662-0.45
							c0.926-0.691,1.16-1.969,1.215-3.123c0.11-2.324-1.284-4.897-3.105-2.298C201.973,253.856,198.686,256.148,200.52,257.846z"/>
						<path style="fill:#FFFFFF;" d="M201.193,247.883c0,0-1.865,2.901,1.777,3.623C202.97,251.506,204.512,248.86,201.193,247.883z
							"/>
					</g>
					<path style="fill:#FFFFFF;" d="M281.811,191.091c0.004-0.028-0.006-0.053-0.004-0.081c0.016-0.084,0.022-0.142,0.018-0.15
						c-0.006-0.013-0.019-0.017-0.026-0.028c-0.027-0.623-0.462-1.166-1.102-1.266c-0.729-0.114-1.411,0.385-1.525,1.113
						c-0.091,0.585,0.221,1.124,0.72,1.38c-0.633,1.288-1.621,2.545-1.621,2.545c0.232,0.695,1.002,0.667,1.002,0.667
						c1.681-1.727,2.293-3.321,2.481-4.028C281.77,191.19,281.803,191.147,281.811,191.091z"/>
				</g>
			</g>
			<g>
				<g>
					
						<ellipse transform="matrix(0.2316 -0.9728 0.9728 0.2316 -227.9649 475.8592)" style="fill:#C45233;" cx="187.242" cy="382.234" rx="18.655" ry="18.655"/>
					<g>
						<path style="fill:none;stroke:#722C1C;stroke-linejoin:round;stroke-miterlimit:10;" d="M169.92,375.311
							c0,0,10.281,11.92,35.579,10.764"/>
						<path style="fill:none;stroke:#722C1C;stroke-linejoin:round;stroke-miterlimit:10;" d="M177.599,366.262
							c0,0,6.69,18.576-7.279,23.829"/>
						<path style="fill:none;stroke:#722C1C;stroke-linejoin:round;stroke-miterlimit:10;" d="M204.566,375.311
							c0,0-9.751,5.576-8.18,23.184"/>
						<path style="fill:none;stroke:#722C1C;stroke-linejoin:round;stroke-miterlimit:10;" d="M190.594,364.151
							c0,0,3.424,18.854-10.397,35.358"/>
					</g>
				</g>
				<path style="fill:#D1D3D4;" d="M205.897,382.234c0-10.303-8.352-18.655-18.655-18.655c-3.756,0-7.245,1.12-10.172,3.029
					c1.149-0.221,2.332-0.346,3.545-0.346c10.303,0,18.655,8.352,18.655,18.655c0,6.547-3.38,12.297-8.483,15.626
					C199.393,398.885,205.897,391.323,205.897,382.234z"/>
			</g>
			<g>
				<path style="fill:#BCBEC0;" d="M132.841,273.441c0,0,40.02-1.32,57.519,0.35c0,0-5.833-0.058-9.152,0.117
					c-3.32,0.175-28.624-0.019-32.753-0.058C144.326,273.81,132.841,273.441,132.841,273.441z"/>
				<path style="fill:#FBB040;" d="M171.446,250.201c0,0,1.073-5.017,3.045-6.451c0,0,1.974,3.583,1.794,7.347
					c0,0,7.166-1.792,10.034,4.481c0,0,2.33-5.913,5.376-4.839c3.047,1.075,0.358,7.168-1.434,8.064c0,0-1.255,8.242-4.121,9.498
					c-2.866,1.255,5.994-0.733,5.555,3.226c-0.439,3.958-1.158,2.808-2.955,2.808c-1.797,0-7.081-1.598-7.081-1.598
					s-2.864,3.868-9.317,1.598h-8.423l-1.613-1.598c0,0-1.972,1.926-6.989,0c-5.017-1.926-7.474-1.05-11.289,0
					c-3.815,1.05-15.234,2.018-15.234-8.735c0-10.753,7.168-9.319,7.168-9.319s3.942-13.083,18.638-12.366
					C169.295,243.033,171.446,250.201,171.446,250.201z"/>
				<g style="opacity:0.4;">
					<path style="fill:#BDB09B;" d="M158.25,269.69c-2.762-1.032-6.131-0.629-8.944-0.055c-2.93,0.597-6.217,1.818-9.252,1.519
						c-3.626-0.356-6.671-2.038-8.466-5.276c-1.386-2.502-1.39-5.32-0.806-8.051c0.103-0.48,0.179-0.959,0.209-1.414
						c-1.227,1.335-2.199,3.633-2.199,7.588c0,10.753,11.418,9.784,15.234,8.735c3.815-1.05,6.272-1.926,11.289,0
						c5.017,1.926,6.989,0,6.989,0l0.025,0.025c-0.014-0.044-0.025-0.101-0.039-0.14C161.744,271.137,159.665,270.22,158.25,269.69z
						"/>
				</g>
				<path style="opacity:0.4;fill:#BDB09B;" d="M135.349,258.369c-0.193,1.365,1.216,2.298,2.148,3.059
					c2.023,1.652,4.397,2.657,7.042,2.733c2.774,0.078,5.129-1.237,7.703-1.901c0.772,1.784,3.937,0.519,5.339,1.085
					c0.772,0.313,1.797,1,2.608,1.391c0.809,0.389,1.273,1.046,1.749,1.756c-2.516-1.576-5.594-1.96-8.549-1.671
					c-2.666,0.26-5.159,1.469-7.813,1.71c-4.077,0.372-10.355-1.181-10.567-6.124c-0.03-0.712,0.076-1.314,0.34-1.926"/>
				<path style="opacity:0.4;fill:#8E8476;" d="M168.614,252.992c-0.582,1.021-1.303,1.942-1.868,2.978
					c-0.607,1.108-0.981,2.325-1.418,3.507c-0.609,1.645-1.043,3.659-0.59,5.396c0.361,1.384,0.844,2.964,2.006,3.9
					c0.733,0.591,1.811,1.578,2.843,1.491c-0.91-1.22-1.91-2.137-2.445-3.629c-0.521-1.454-0.967-2.849-1.147-4.376
					c-0.221-1.862,0.142-3.909,0.763-5.656c0.45-1.267,1.26-2.393,2.022-3.472c-0.03-0.021-0.06-0.041-0.09-0.06"/>
				<path style="fill:#FFFFFF;" d="M158.285,264.594c-0.549-0.588-0.131-1.965-0.363-2.717c-1.285-0.142-2.659,0.315-3.957,0.253
					c-0.357-0.016-1.294-0.368-1.588-0.177c-0.297,0.193-0.528,1.43-0.669,1.781c-0.181,0.444-0.324,1.043-0.673,1.39h0.043
					c0.404-0.331,1.503-0.154,2.013-0.257c1.345-0.276,2.441-0.289,3.785,0c1.089,0.234,2.121,0.416,3.114,0.798
					c-0.17-0.083-0.34-0.168-0.49-0.283C159.167,265.13,158.555,264.882,158.285,264.594z"/>
				<path style="fill:#FFFFFF;" d="M172.455,274.674c6.453,2.27,9.317-1.599,9.317-1.599s5.284,1.599,7.081,1.599
					c1.797,0,2.516,1.151,2.955-2.808c0.437-3.944-8.352-1.986-5.578-3.215c-0.069-0.021-0.136-0.05-0.207-0.067
					c-1.678-0.414-2.737,1.441-4.015,2.179c-0.338,0.197-0.503,0.283-0.933,0.117c-0.439-0.17-0.936-0.506-1.354-0.742
					c-0.733-0.409-1.496-0.933-2.365-0.809c-0.929,0.131-1.815,0.464-2.712,0.735c-1.106,0.335-1.954,1.147-3.04,1.524
					c-0.843,0.294-1.984-0.22-2.845-0.359c-0.186-0.03-0.457-0.174-0.622-0.172c-0.432,0.004-0.522,0.547-0.871,0.699
					c-0.795,0.352-2.487-0.437-3.149-0.917c-0.205-0.149-0.322-0.269-0.403-0.404c-0.071,0.894-0.421,1.694-1.061,2.399
					c-0.043,0.046-0.12,0.147-0.209,0.266l1.588,1.574H172.455z"/>
				<path style="opacity:0.4;fill:#BDB09B;" d="M188.827,268.793c-0.018,0.193-1.928,1.22-2.356,1.675
					c-0.519,0.552-1.232,2.289-1.747,2.636c-0.857,0.573-2.144-0.356-3.13-0.476c0.032-0.835-0.165-1.248,0.2-1.986
					c0.494-0.995,1.694-1.937,2.728-2.184c1.531-0.368,2.762,0.537,4.192,0.563"/>
				<path style="fill:#FFFFFF;" d="M180.556,251.118c-2.866,2.42-1.678,6.072-3.962,8.611c-1.462,1.623-3.764,1.668-5.488,2.753
					c-1.202,0.758-1.861,1.264-3.24,1.745c-2.877,1.006-0.389,3.622,1.02,5.327c2.079,2.518,6.271-0.581,9.113-0.157
					c0.868,0.129,1.363,0.742,1.811,0.003c0.492-0.811-0.535-2.427-0.91-3.047c-1.698-2.808-1.067-3.996-0.072-6.893
					c0.761-2.222,1.074-3.842,2.42-5.773c0.388-0.558,1.014-1.351,0.705-2.002c-0.363-0.758-1.54-0.717-2,0.037"/>
				<path style="opacity:0.4;fill:#BDB09B;" d="M174.71,244.908c-0.593,1.007-1.322,1.732-1.579,2.916
					c-0.216,0.999-0.161,1.995-0.292,3.008c-0.133,1.021-0.483,1.65-1.005,2.532c-0.781,1.315-1.586,2.558-2.25,3.934
					c-0.795,1.643-0.951,3.61-0.786,5.424c0.198,2.186,1.8,6.143,4.479,6.056c1.499-0.048,2.84-0.766,4.307-1
					c1.28-0.204,2.629,1.131,3.861,0.267c0.264-0.184,0.301-0.471,0.544-0.655c0.154-0.117,0.494-0.214,0.674-0.303
					c0.39-0.186,0.655-0.259,1.073-0.28c1.209-0.06,1.811-0.605,2.872-1.115c0.604-0.289,1.824-0.891,1.843,0.386
					c0.007,0.535-0.559,1.152-0.915,1.522c-0.708,0.733-1.855,0.722-2.795,1.029c-0.639,0.207-1.106,0.439-1.641,0.853
					c-0.503,0.388-1.183,1.197-1.844,1.292c-0.598,0.085-1.478-0.726-1.981-1.011c-0.669-0.379-1.556-0.889-2.353-0.894
					c-1.319-0.011-2.436,1.326-3.673,1.714c-1.368,0.43-2.848,0.777-4.004-0.267c-0.643-0.579-0.997-1.367-1.436-2.094
					c-0.621-1.03-1.122-2.013-1.423-3.188c-0.311-1.223-0.35-2.542-0.538-3.796c-0.197-1.303-0.014-2.31,0.296-3.583
					c0.49-2.02,1.896-3.81,3.298-5.325c0.731-0.791,1.554-1.547,2.179-2.431c0.42-0.593,0.582-1.321,0.853-1.988
					c0.358-0.88,0.581-1.802,1.122-2.602c0.229-0.34,0.814-1.324,1.255-1.322c-0.007,0.186,0.039,0.377,0.154,0.531"/>
				
					<path style="fill:none;stroke:#C1812B;stroke-width:0.5669;stroke-linecap:round;stroke-linejoin:round;stroke-miterlimit:10;" d="
					M162.1,272.844c1.581-1.31,2.163-3.02,1.044-4.879c-1.211-2.013-4.362-3.05-6.591-3.162c-4.961-0.25-9.448,2.08-14.435,1.841
					c-2.673-0.128-6.536-2.459-7.053-5.267c-0.166-0.906-0.143-2.031,0.156-2.895c0.191-0.549,0.641-1.009,0.69-1.602
					c0.029-0.352-0.145-0.641-0.186-0.981c-0.117-0.991,0.634-2.032,1.105-2.87"/>
				
					<path style="fill:none;stroke:#C1812B;stroke-width:0.5669;stroke-linecap:round;stroke-linejoin:round;stroke-miterlimit:10;" d="
					M150.953,265.373c0,0,5.463-6.833-1.142-13.954"/>
				
					<path style="fill:none;stroke:#C1812B;stroke-width:0.5669;stroke-linecap:round;stroke-linejoin:round;stroke-miterlimit:10;" d="
					M158.023,264.686c0,0-0.632-3.562,1.091-4.652c1.722-1.09,2.986-5.799,2.986-5.799"/>
				<path style="fill:#F09BA2;" d="M174.123,266.079c-1.524,0.769-2.886-0.533-2.627-2.108
					C172.423,263.886,176.389,264.937,174.123,266.079z"/>
				<path style="fill:#F09BA2;" d="M187.913,258.113c0.11-0.271,0.003-0.691-0.004-0.968c-0.019-0.742,0.117-1.395,0.376-2.096
					c0.37-1.009,1.085-2.154,2.105-2.632c1.461-0.685,1.59,0.809,1.397,1.924c-0.239,1.376-1.262,2.753-2.445,3.48
					c-0.536,0.331-1.429,0.758-1.478-0.198"/>
				<path style="fill:#F09BA2;" d="M173.724,251.805c-0.791,0.752-0.981-0.386-0.972-0.924c0.018-1.011-0.167-1.924,0.126-2.928
					c0.166-0.581,0.409-1.484,0.96-1.786c0.616,0.798,0.443,2.3,0.432,3.252C174.261,250.141,174.305,251.253,173.724,251.805z"/>
				
					<path style="fill:none;stroke:#524A40;stroke-width:0.5669;stroke-linecap:round;stroke-linejoin:round;stroke-miterlimit:10;" d="
					M179.039,262.466c0,0,0.432,2.131,3.224,1.383"/>
				
					<path style="fill:none;stroke:#524A40;stroke-width:0.5669;stroke-linecap:round;stroke-linejoin:round;stroke-miterlimit:10;" d="
					M170.768,258.614c0,0,0.432,2.131,3.224,1.383"/>
			</g>
			<path style="fill:#DDA878;" d="M374.683,279.525H126.082c-0.385,0-0.7-0.315-0.7-0.7V273.7c0-0.385,0.315-0.7,0.7-0.7h248.601
				c0.385,0,0.7,0.315,0.7,0.7v5.126C375.383,279.21,375.068,279.525,374.683,279.525z"/>
		</g>
	</g>
</g>
</svg>
